<svg width="16" height="18" viewBox="0 0 16 18" fill="none" xmlns="http://www.w3.org/2000/svg">
<path d="M15.5 15.6667V4C15.5 3.08083 14.7525 2.33333 13.8333 2.33333H12.1667V0.666666H10.5V2.33333H5.5V0.666666H3.83333V2.33333H2.16667C1.2475 2.33333 0.5 3.08083 0.5 4V15.6667C0.5 16.5858 1.2475 17.3333 2.16667 17.3333H13.8333C14.7525 17.3333 15.5 16.5858 15.5 15.6667ZM5.5 14H3.83333V12.3333H5.5V14ZM5.5 10.6667H3.83333V9H5.5V10.6667ZM8.83333 14H7.16667V12.3333H8.83333V14ZM8.83333 10.6667H7.16667V9H8.83333V10.6667ZM12.1667 14H10.5V12.3333H12.1667V14ZM12.1667 10.6667H10.5V9H12.1667V10.6667ZM13.8333 6.5H2.16667V4.83333H13.8333V6.5Z" fill="#CC9C63"/>
</svg>
