<svg width="70" height="31" viewBox="0 0 70 31" fill="none" xmlns="http://www.w3.org/2000/svg">
<mask id="path-1-inside-1_46_1134" fill="white">
<path fill-rule="evenodd" clip-rule="evenodd" d="M35 31H70V7L63 0H35V31Z"/>
</mask>
<path d="M70 31V32H71V31H70ZM35 31H34V32H35V31ZM70 7H71V6.58579L70.7071 6.29289L70 7ZM63 0L63.7071 -0.707107L63.4142 -1H63V0ZM35 0V-1H34V0H35ZM70 30H35V32H70V30ZM69 7V31H71V7H69ZM62.2929 0.707107L69.2929 7.70711L70.7071 6.29289L63.7071 -0.707107L62.2929 0.707107ZM35 1H63V-1H35V1ZM34 0V31H36V0H34Z" fill="white" mask="url(#path-1-inside-1_46_1134)"/>
<path fill-rule="evenodd" clip-rule="evenodd" d="M35 0H0V24L7 31H35V0Z" fill="#CC9C63"/>
<path d="M6.83994 22V10.8H11.4479C12.4399 10.8 13.2879 10.96 13.9919 11.28C14.7066 11.6 15.2559 12.0587 15.6399 12.656C16.0239 13.2533 16.2159 13.9627 16.2159 14.784C16.2159 15.6053 16.0239 16.3147 15.6399 16.912C15.2559 17.4987 14.7066 17.952 13.9919 18.272C13.2879 18.5813 12.4399 18.736 11.4479 18.736H7.99194L8.91994 17.792V22H6.83994ZM14.1679 22L11.3359 17.936H13.5599L16.4079 22H14.1679ZM8.91994 18.016L7.99194 17.024H11.3519C12.2693 17.024 12.9573 16.8267 13.4159 16.432C13.8853 16.0373 14.1199 15.488 14.1199 14.784C14.1199 14.0693 13.8853 13.52 13.4159 13.136C12.9573 12.752 12.2693 12.56 11.3519 12.56H7.99194L8.91994 11.536V18.016ZM23.3591 22.16C21.8231 22.16 20.6177 21.728 19.7431 20.864C18.8791 20 18.4471 18.752 18.4471 17.12V10.8H20.5271V17.04C20.5271 18.192 20.7724 19.0293 21.2631 19.552C21.7644 20.0747 22.4684 20.336 23.3751 20.336C24.2817 20.336 24.9804 20.0747 25.4711 19.552C25.9617 19.0293 26.2071 18.192 26.2071 17.04V10.8H28.2551V17.12C28.2551 18.752 27.8177 20 26.9431 20.864C26.0791 21.728 24.8844 22.16 23.3591 22.16Z" fill="white"/>
<path d="M44.5881 15.456H50.1561V17.168H44.5881V15.456ZM44.7481 20.256H51.0681V22H42.6681V10.8H50.8441V12.544H44.7481V20.256ZM53.3868 22V10.8H55.0988L62.1228 19.424H61.2748V10.8H63.3388V22H61.6268L54.6028 13.376H55.4508V22H53.3868Z" fill="white"/>
</svg>
