<svg width="17" height="17" viewBox="0 0 17 17" fill="none" xmlns="http://www.w3.org/2000/svg">
<path d="M8.50008 0.166656C9.60515 0.166656 10.665 0.605643 11.4464 1.38704C12.2278 2.16845 12.6667 3.22825 12.6667 4.33332C12.6667 5.43839 12.2278 6.4982 11.4464 7.2796C10.665 8.061 9.60515 8.49999 8.50008 8.49999C7.39501 8.49999 6.3352 8.061 5.5538 7.2796C4.7724 6.4982 4.33341 5.43839 4.33341 4.33332C4.33341 3.22825 4.7724 2.16845 5.5538 1.38704C6.3352 0.605643 7.39501 0.166656 8.50008 0.166656ZM8.50008 10.5833C13.1042 10.5833 16.8334 12.4479 16.8334 14.75V16.8333H0.166748V14.75C0.166748 12.4479 3.89591 10.5833 8.50008 10.5833Z" fill="#CC9C63"/>
</svg>
